<?xml version="1.0" standalone="no"?>
<!DOCTYPE svg PUBLIC "-//W3C//DTD SVG 20010904//EN"
 "http://www.w3.org/TR/2001/REC-SVG-20010904/DTD/svg10.dtd">
<svg version="1.0" xmlns="http://www.w3.org/2000/svg"
 width="200.000000pt" height="200.000000pt" viewBox="0 0 200.000000 200.000000"
 preserveAspectRatio="xMidYMid meet">
<metadata>
Created by potrace 1.14, written by Peter Selinger 2001-2017
</metadata>
<g transform="translate(0.000000,200.000000) scale(0.100000,-0.100000)"
fill="#000000" stroke="none">
<path d="M0 1000 l0 -1000 1000 0 1000 0 0 1000 0 1000 -1000 0 -1000 0 0
-1000z m1063 564 c20 -3 37 -10 37 -14 0 -13 -91 -254 -98 -261 -4 -4 -39 -9
-79 -11 l-72 -4 -51 135 c-27 74 -48 136 -46 138 2 3 37 11 78 18 67 13 137
12 231 -1z m220 -112 c46 -50 77 -100 77 -125 0 -30 -181 -167 -221 -167 -16
0 -79 79 -79 100 0 5 32 58 70 116 39 59 70 111 70 116 0 23 42 2 83 -40z
m-559 -99 l88 -103 -31 -35 c-17 -20 -34 -47 -37 -60 -3 -14 -8 -25 -10 -25
-2 0 -67 25 -144 56 -101 40 -140 61 -140 73 0 23 71 128 120 179 33 33 44 39
53 29 7 -6 52 -58 101 -114z m661 -131 c6 -4 21 -41 35 -82 13 -41 57 -141 97
-221 40 -81 73 -153 73 -161 0 -24 -156 -138 -188 -138 -6 0 -22 11 -33 25
l-22 24 -27 -37 c-75 -103 -188 -163 -339 -178 -145 -14 -275 36 -385 149
-102 103 -164 233 -181 373 l-7 61 134 12 c73 7 142 14 154 16 18 4 21 -3 32
-89 6 -51 20 -114 31 -138 24 -56 88 -112 146 -128 88 -25 208 8 253 69 25 34
41 88 24 77 -12 -7 -96 -30 -148 -39 -18 -4 -38 -1 -48 6 -21 16 -53 182 -37
200 5 7 40 19 77 27 86 17 205 77 268 135 47 43 70 53 91 37z"/>
<path d="M858 1523 c-31 -3 -48 -9 -48 -17 0 -7 15 -51 34 -97 l33 -84 50 0
49 0 32 87 c18 47 32 91 32 96 0 19 -61 24 -182 15z"/>
<path d="M1207 1418 c-8 -13 -32 -53 -55 -89 -23 -36 -42 -69 -42 -73 0 -3 7
-18 16 -31 l16 -25 37 22 c20 12 60 41 88 65 59 50 59 58 0 121 -37 38 -42 39
-60 10z"/>
<path d="M579 1387 c-36 -44 -79 -108 -79 -118 0 -5 6 -9 14 -9 8 0 52 -16 97
-35 46 -19 88 -35 94 -35 16 0 47 58 39 73 -5 6 -24 30 -45 52 -20 22 -49 54
-65 72 l-29 31 -26 -31z"/>
<path d="M1324 1159 c-21 -23 -114 -87 -154 -106 -36 -17 -109 -40 -153 -48
-27 -5 -37 -12 -33 -21 3 -8 8 -37 12 -65 4 -30 13 -53 21 -56 20 -8 119 15
167 38 55 26 59 25 54 -24 -15 -135 -130 -223 -278 -215 -153 8 -245 104 -271
284 l-12 76 -31 -6 c-17 -2 -66 -8 -108 -12 l-78 -6 0 -37 c0 -47 40 -159 82
-228 42 -71 141 -163 210 -197 124 -60 283 -56 414 12 48 25 126 104 151 155
l19 39 35 -39 c40 -44 33 -46 132 25 l47 34 -47 86 c-25 47 -68 140 -94 206
-26 66 -52 122 -57 124 -5 1 -17 -7 -28 -19z"/>
</g>
</svg>
